# xmcd
#
# Track frame offsets:
#	150
#	14158
#	29979
#	43260
#	61623
#	76470
#	93014
#	110256
#	126272
#	145571
#	165515
#	179575
#	201556
#
# Disc length: 2966 seconds
#
# Revision: 1
# Processed by: cddbd v1.5.1PL2 Copyright (c) Steve Scherf et al.
# Submitted via: audiograbber 1.82.02
#
DISCID=b60b940d
DTITLE=Melissa Gibson - Under Their Influence
DYEAR=2005
DGENRE=Country
TTITLE0=Anticipation
TTITLE1=You Got It
TTITLE2=Where You Lead
TTITLE3=Leaving On A Jet Plane
TTITLE4=It's Only Love
TTITLE5=When You Say Nothing At All
TTITLE6=I Envy The Wind
TTITLE7=Waiting For My Angel To Show
TTITLE8=Have A Little Faith In Me
TTITLE9=Dig Down Deep
TTITLE10=What Are You Waiting For
TTITLE11=Fields Of Gray
TTITLE12=Unglued
EXTD=Various Writers and Publishers
EXTT0=written by Carly Simon
EXTT1=written by Roy Orbison, Tom Petty and Jeffrey Lynne
EXTT2=written by Carole King and Toni Stern
EXTT3=written by John Denver
EXTT4=written by Mary Chapin Carpenter and Randy Scruggs
EXTT5=written by Don Schlitz and Paul Overstreet
EXTT6=written by Lucinda Williams
EXTT7=written by Don Schlitz
EXTT8=written by John Hiatt
EXTT9=written by Marc Cohn
EXTT10=written by Blue Miller and Beth Miekos
EXTT11=written by Bruce Hornsby
EXTT12=written by Bob Mair and Joel Wachbrit
PLAYORDER=
